<svg xmlns="http://www.w3.org/2000/svg" viewBox="0 0 484 484" width="484" height="484">
	<style>
		tspan { white-space:pre }
		.shp0 { fill: #ffffff } 
	</style>
	<g id="Layer">
		<g id="Layer">
			<path id="Layer" class="shp0" d="M483.3,116.95v249.5c0,32.6 -26.5,59.1 -59.1,59.1h-365.1c-32.6,0 -59.1,-26.5 -59.1,-59.1v-249.6c0,-32.6 26.5,-59.1 59.1,-59.1h365.2c32.6,0 59.1,26.6 59,59.2zM456.3,366.45v-249.5c0,-17.7 -14.4,-32.1 -32.1,-32.1h-365.1c-17.7,0 -32.1,14.4 -32.1,32.1v249.5c0,17.7 14.4,32.1 32.1,32.1h365.2c17.7,0 32.1,-14.4 32.1,-32.1z" />
			<path id="Layer" class="shp0" d="M304.8,238.55l118.2,-106c5.5,-5 6,-13.5 1,-19.1c-5,-5.5 -13.5,-6 -19.1,-1l-163,146.3l-31.8,-28.4c-0.1,-0.1 -0.2,-0.2 -0.2,-0.3c-0.7,-0.7 -1.4,-1.3 -2.2,-1.9l-129.4,-115.8c-5.6,-5 -14.1,-4.5 -19.1,1.1c-5,5.6 -4.5,14.1 1.1,19.1l119.6,106.9l-119.1,111.5c-5.4,5.1 -5.7,13.6 -0.6,19.1c2.7,2.8 6.3,4.3 9.9,4.3c3.3,0 6.6,-1.2 9.2,-3.6l120.9,-113.1l32.8,29.3c2.6,2.3 5.8,3.4 9,3.4c3.2,0 6.5,-1.2 9,-3.5l33.7,-30.2l120.2,114.2c2.6,2.5 6,3.7 9.3,3.7c3.6,0 7.1,-1.4 9.8,-4.2c5.1,-5.4 4.9,-14 -0.5,-19.1z" />
		</g>
	</g>
	<g id="Layer">
	</g>
	<g id="Layer">
	</g>
	<g id="Layer">
	</g>
	<g id="Layer">
	</g>
	<g id="Layer">
	</g>
	<g id="Layer">
	</g>
	<g id="Layer">
	</g>
	<g id="Layer">
	</g>
	<g id="Layer">
	</g>
	<g id="Layer">
	</g>
	<g id="Layer">
	</g>
	<g id="Layer">
	</g>
	<g id="Layer">
	</g>
	<g id="Layer">
	</g>
	<g id="Layer">
	</g>
</svg>